<svg id="Layer_1" data-name="Layer 1" xmlns="http://www.w3.org/2000/svg" viewBox="0 0 319.84 271.26"><defs><style>.cls-1{fill:#f5c522;}.cls-2{fill:#f8d921;}.cls-3{fill:#faea21;}.cls-4{fill:#f29721;}.cls-5{fill:#f7bb23;}.cls-6{fill:#f9d020;}.cls-7{fill:#f9e323;}.cls-8{fill:#f7de23;}.cls-9{fill:#f3b020;}.cls-10{fill:#f4a721;}.cls-11{fill:#f0a326;}.cls-12{fill:#f5b421;}.cls-13{fill:#f7d322;}.cls-14{fill:#d0ad1e;}.cls-15{fill:#f7bf22;}.cls-16{fill:#f5c823;}.cls-17{fill:#cf991c;}.cls-18{fill:#d0c120;}.cls-19{fill:#ccca75;}.cls-20{fill:#373400;}</style></defs><path class="cls-1" d="M191.76,253.4,156,195.65c1.77-.92,5.61-2.58,9.68-1.38a11.25,11.25,0,0,1,1.73.67c10.26,5.06,40.23,16.38,39.3,19.51-.81,2.76-25.21-1.72-25.11-2.59s17.21.4,61.13,4.51l17,7.81,5.19-8.5v16.68l24.53-2.52c-2.55,12.82-4.72,23.79-6.9,34.77-17.56-7.94-35.41-13.81-55.31-8.52-7.15-13.32-9.21-13.91-19.74-4.69l-4.12-7.12Z" transform="translate(-128.16 -143)"/><path class="cls-2" d="M265,215.68l-5.19,8.5.94-18.39-22.14-12.31c-13.26.55-26.95-.89-40.47-3.33-13.1-2.36-26-5.74-40.61-9-.28,3.63-.71,9.17-1.13,14.72l-22.71-39c-.11-8.77,5.71-8.26,11.63-7.6,4.81,7.91,9.58,8,14.28-.1l11.44.14c4.11,15.11,14.41,19,28.7,17.18,7.46-.95,15.24.62,22.7-.34,13.4-1.71,22,1.55,21.54,17.18,0,.27,1.53.58,3,1.12,1.08-5.87,2.13-11.59,3.19-17.31l4-1.44,14.42,21.08ZM164.73,164.21c-1.62-1.46-2.39-2.51-3.41-2.93a3.09,3.09,0,0,0-2.29.85c.11,1.1.43,2.87,1.08,3.06C161.14,165.51,162.48,164.76,164.73,164.21Z" transform="translate(-128.16 -143)"/><path class="cls-3" d="M443.54,154.27l-20.89,29.36-75.76-4.43c.06-1.65.11-3.3.17-4.95l11.26-4.88c-.19-.76-.37-1.52-.55-2.28l-12.28-.85q1.5-8.64,3-17.27c26.86-.05,53.71-.27,80.55,0,4.73.06,9.42,2.39,14.13,3.67A3,3,0,0,0,443.54,154.27Z" transform="translate(-128.16 -143)"/><path class="cls-4" d="M317.55,359.24l-29.23,55L248,346.44c1.33-.3,3.29-1.34,3.9-.81,8.76,7.71,16.7,12.23,23.68-2.34,1-2.15,6.55-2.09,10-3.05l8.23,16.06c1.37-5.31,5.49-9.24,10.14-9.8C310.15,345.76,316.93,351.19,317.55,359.24Z" transform="translate(-128.16 -143)"/><path class="cls-5" d="M191.76,253.4l11.66-9.12,4.12,7.12c10.53-9.22,12.59-8.63,19.74,4.69,19.9-5.29,37.75.58,55.31,8.52q-3.22,15.75-6.44,31.51c-2.92-6.21-2-16.8-13.52-13.75-13.19,3.52-25,1.44-36.68-5.51-3.27-2-8.09-1.26-12.11-1.77.95,5.92,1.82,11.29,2.69,16.67Q204.14,272.58,191.76,253.4Z" transform="translate(-128.16 -143)"/><path class="cls-6" d="M156.36,195.84c.42-5.55.85-11.09,1.13-14.72,14.59,3.29,27.51,6.67,40.61,9,13.52,2.44,27.21,3.88,40.47,3.33l22.14,12.31-.94,18.39-17-7.81c-18.61,10.62-39.84-.14-61.13-4.51-1.26-.26-2.66-6.7-7.95-10.81a15.28,15.28,0,0,0-8.26-3.52,13.79,13.79,0,0,0-5.94.88Z" transform="translate(-128.16 -143)"/><path class="cls-7" d="M268.56,186.71l-14.42-21.08-4,1.44c-1.06,5.72-2.11,11.44-3.19,17.31-1.49-.54-3-.85-3-1.12.45-15.63-8.14-18.89-21.54-17.18-7.46,1-15.24-.61-22.7.34-14.29,1.82-24.59-2.07-28.69-17.18l104.74.86-1,4.9c-.16,1.65-.32,3.3-.49,4.95Z" transform="translate(-128.16 -143)"/><path class="cls-8" d="M345.49,166.24l12.28.85c.18.76.36,1.52.55,2.28l-11.26,4.88c-.06,1.65-.11,3.3-.17,4.95l75.76,4.43-17.22,29-16.17-3.34c-.24,3.48-.44,6.31-.64,9.13h0c-7.36-7.79-12.71-18.68-26-17.25L345.5,204c1.74-4.18,3.48-8.35,5.75-13.78l-14.08,2Q341.33,179.23,345.49,166.24Z" transform="translate(-128.16 -143)"/><path class="cls-9" d="M216.53,291.76c-.87-5.38-1.74-10.75-2.69-16.67,4,.51,8.84-.19,12.11,1.77,11.66,6.95,23.49,9,36.68,5.51,11.47-3.05,10.6,7.54,13.52,13.75q1.78,6.09,3.55,12.2c-11.48,8.51-33.53,8.5-40.48.82l-8.54,8.12Z" transform="translate(-128.16 -143)"/><path class="cls-10" d="M317.55,359.24c-.62-8.05-7.4-13.48-13.66-12.74-4.65.56-8.77,4.49-10.14,9.8l-8.23-16.06-11-10.4,11-1.22,17-23.18,16.95,15.28,9.53-8.9c1.63,2.74,4.1,5.91,7.3,6.05,3,.14,5.05-2.38,5.64-1.88s-.46,3.11-7.52,13.17q-3.75,6.49-7.51,13.16Q322.14,350.84,317.55,359.24Z" transform="translate(-128.16 -143)"/><path class="cls-11" d="M285.59,328.62l-11,1.22,11,10.4c-3.44,1-9,.9-10,3.05-7,14.57-14.92,10-23.68,2.34-.61-.53-2.57.51-3.9.81l-17.27-29.18,8.54-8.12c6.95,7.68,29,7.69,40.48-.82l2.6-.22Q283.95,318.36,285.59,328.62Z" transform="translate(-128.16 -143)"/><path class="cls-12" d="M335.08,326c-2.05-4.71-4-9.45-6.05-14.18l-9.53,8.9-16.95-15.28q10.06-16,20.12-32.06l13.91,8.47,2.39-2.74,2.41,14.11c11.57-10,8.65,3,12.28,6.18C348,309.07,335.45,326.85,335.08,326Z" transform="translate(-128.16 -143)"/><path class="cls-13" d="M388.62,218.45c.2-2.82.4-5.65.64-9.13l16.17,3.34-19.37,35-13-12.39c-11.63,12.71-17.85,2.25-24.79-5.49q7.14-14.31,14.3-28.62c13.31-1.43,18.66,9.46,26,17.25l2.67,4.32,1.69-1.56Z" transform="translate(-128.16 -143)"/><path class="cls-14" d="M362.6,201.2q-7.16,14.31-14.3,28.62-5.66,8.79-11.32,17.56l-14.27,23.25q-5.82-6.11-11.66-12.19L345.5,204Z" transform="translate(-128.16 -143)"/><path class="cls-15" d="M322.71,270.63,337,247.38c3,3.36,5.63,7.22,9.13,9.93,3.21,2.49,7.72,5.75,11,5.15,11-2,12.16,1.12,7.25,10.27-1.46,2.7-.92,6.5-1.3,9.79q-4.71,8.44-9.44,16.89c-3.63-3.17-.71-16.23-12.28-6.19L339,279.11l-2.39,2.74-13.91-8.47C322.69,272.46,322.71,271.55,322.71,270.63Z" transform="translate(-128.16 -143)"/><path class="cls-16" d="M363.1,282.52c.38-3.29-.16-7.09,1.3-9.79,4.91-9.15,3.72-12.23-7.25-10.27-3.32.6-7.83-2.66-11-5.15-3.5-2.71-6.12-6.57-9.13-9.93q5.65-8.77,11.32-17.56c6.94,7.74,13.16,18.2,24.79,5.49l13,12.39Z" transform="translate(-128.16 -143)"/><path class="cls-17" d="M322.71,270.63c0,.92,0,1.83,0,2.75q-10.07,16-20.12,32.06l-17,23.18q-1.65-10.26-3.29-20.52l28.75-49.66Q316.89,264.53,322.71,270.63Z" transform="translate(-128.16 -143)"/><path class="cls-18" d="M345.49,166.24q-4.15,13-8.32,26l-15.59,5c4.73-17.47,8.81-32.56,12.89-47.65l11.24-3.17,2.76,2.57Q347,157.6,345.49,166.24Z" transform="translate(-128.16 -143)"/><path class="cls-19" d="M275.75,150.1,171,149.24l-11.45-.14-14.28.1c-5.92-.66-11.74-1.17-11.63,7.6L128.16,146l145.66-.62Z" transform="translate(-128.16 -143)"/><path class="cls-20" d="M273.82,145.41,128.16,146c3-1,6.08-2.82,9.13-2.84q64.28-.27,128.54,0C268.5,143.18,271.16,144.63,273.82,145.41Z" transform="translate(-128.16 -143)"/><path class="cls-20" d="M345.71,146.4l-11.24,3.17c3.56-2.17,7.08-6.15,10.67-6.21,31-.5,62-.41,93-.14,3.29,0,6.57,2.42,9.85,3.71-1.49,2.45-3,4.9-4.46,7.34a3,3,0,0,1-.39-1.6c5.85-8.33-1.2-6.73-5.27-6.72C407.16,146,376.44,146.23,345.71,146.4Z" transform="translate(-128.16 -143)"/><path class="cls-19" d="M274.24,160c.17-1.65.33-3.3.49-4.95C274.57,156.65,274.41,158.3,274.24,160Z" transform="translate(-128.16 -143)"/><path class="cls-7" d="M145.28,149.2l14.28-.1C154.86,157.18,150.09,157.11,145.28,149.2Z" transform="translate(-128.16 -143)"/><path class="cls-7" d="M164.73,164.21c-2.25.55-3.59,1.3-4.62,1-.65-.19-1-2-1.08-3.06a3.09,3.09,0,0,1,2.29-.85C162.34,161.7,163.11,162.75,164.73,164.21Z" transform="translate(-128.16 -143)"/><path class="cls-19" d="M345.71,146.4c30.73-.17,61.45-.39,92.17-.45,4.07,0,11.12-1.61,5.27,6.72-4.71-1.27-9.4-3.6-14.13-3.66-26.84-.31-53.69-.09-80.55,0Z" transform="translate(-128.16 -143)"/><path class="cls-8" d="M388.62,218.45l4.36,2.76-1.69,1.56-2.67-4.32Z" transform="translate(-128.16 -143)"/><path class="cls-1" d="M165.71,194.27" transform="translate(-128.16 -143)"/></svg>